<svg width="119" height="37" viewBox="0 0 119 37" fill="none" xmlns="http://www.w3.org/2000/svg">
<rect x="18.6396" y="31.7861" width="9.9837" height="2.62729" rx="1.31364" transform="rotate(-180 18.6396 31.7861)" fill="white"/>
<rect x="17.0615" y="36.165" width="6.6558" height="2.62729" rx="1.31365" transform="rotate(-180 17.0615 36.165)" fill="white"/>
<circle cx="13.998" cy="13.8329" r="11.998" stroke="white" stroke-width="2.80244"/>
<path d="M10.4058 19.7006C10.4058 19.2169 10.7979 18.8248 11.2815 18.8248H12.2449H12.5076C12.8945 18.8248 13.2082 18.5112 13.2082 18.1242C13.2082 17.4785 14.9597 17.4785 14.9597 18.1242C14.9597 18.5112 15.2734 18.8248 15.6603 18.8248H16.8864C17.3701 18.8248 17.7622 19.2169 17.7622 19.7006C17.7622 20.1843 17.3701 20.5764 16.8864 20.5764H11.2815C10.7979 20.5764 10.4058 20.1843 10.4058 19.7006Z" fill="white" stroke="white" stroke-width="0.525458"/>
<rect x="14.9604" y="12.5193" width="7.35641" height="1.75153" transform="rotate(90 14.9604 12.5193)" fill="white" stroke="white" stroke-width="0.525458"/>
<path d="M14.9604 12.3442C14.9604 12.8279 14.5684 13.22 14.0847 13.22C13.8144 13.22 13.5703 13.37 13.4192 13.5941C13.3127 13.7522 13.2089 13.8734 13.2089 13.7455C13.2089 13.4827 13.0338 13.22 12.6835 13.22L12.3332 13.22C11.8495 13.22 11.4574 12.8279 11.4574 12.3442C11.4574 11.8606 11.8495 11.4685 12.3332 11.4685L14.0847 11.4685C14.5684 11.4685 14.9604 11.8606 14.9604 12.3442Z" fill="white" stroke="white" stroke-width="0.525458"/>
<circle cx="13.7326" cy="8.14058" r="1.57637" fill="white"/>
<path d="M37.9634 11.2168V26.6108H34.8758V11.2168H37.9634ZM47.0128 14.2162C48.4684 14.2162 49.6446 14.6794 50.5415 15.6057C51.4384 16.5173 51.8868 17.7964 51.8868 19.4431V26.6108H48.7992V19.8622C48.7992 18.8918 48.5566 18.1493 48.0714 17.6347C47.5862 17.1054 46.9246 16.8407 46.0865 16.8407C45.2337 16.8407 44.5574 17.1054 44.0575 17.6347C43.5723 18.1493 43.3297 18.8918 43.3297 19.8622V26.6108H40.2421V14.3927H43.3297V15.9144C43.7414 15.3851 44.2633 14.9734 44.8955 14.6794C45.5425 14.3706 46.2482 14.2162 47.0128 14.2162ZM59.6529 16.9289H57.5136V26.6108H54.3819V16.9289H52.9925V14.3927H54.3819V13.7752C54.3819 12.2754 54.8083 11.1727 55.661 10.467C56.5138 9.76124 57.8003 9.43042 59.5206 9.47453V12.077C58.7707 12.0623 58.2488 12.1872 57.9547 12.4519C57.6606 12.7165 57.5136 13.1944 57.5136 13.8854V14.3927H59.6529V16.9289ZM66.3073 26.8093C65.1311 26.8093 64.0725 26.552 63.1315 26.0374C62.1905 25.5081 61.448 24.7656 60.904 23.8099C60.3747 22.8542 60.11 21.7515 60.11 20.5018C60.11 19.252 60.382 18.1493 60.926 17.1936C61.4847 16.2379 62.2419 15.5027 63.1976 14.9881C64.1533 14.4588 65.2193 14.1942 66.3955 14.1942C67.5718 14.1942 68.6377 14.4588 69.5934 14.9881C70.5491 15.5027 71.299 16.2379 71.843 17.1936C72.4017 18.1493 72.681 19.252 72.681 20.5018C72.681 21.7515 72.3943 22.8542 71.8209 23.8099C71.2622 24.7656 70.4977 25.5081 69.5273 26.0374C68.5716 26.552 67.4983 26.8093 66.3073 26.8093ZM66.3073 24.1187C66.866 24.1187 67.388 23.9864 67.8732 23.7217C68.3731 23.4424 68.7701 23.0307 69.0641 22.4867C69.3582 21.9426 69.5052 21.281 69.5052 20.5018C69.5052 19.3402 69.1964 18.4507 68.5789 17.8332C67.9761 17.2009 67.2336 16.8848 66.3514 16.8848C65.4692 16.8848 64.7267 17.2009 64.1239 17.8332C63.5358 18.4507 63.2417 19.3402 63.2417 20.5018C63.2417 21.6633 63.5284 22.5602 64.1019 23.1924C64.69 23.8099 65.4251 24.1187 66.3073 24.1187ZM89.3475 14.2162C90.8472 14.2162 92.0528 14.6794 92.9644 15.6057C93.8907 16.5173 94.3538 17.7964 94.3538 19.4431V26.6108H91.2662V19.8622C91.2662 18.9065 91.0236 18.1787 90.5384 17.6788C90.0532 17.1642 89.3916 16.9069 88.5535 16.9069C87.7155 16.9069 87.0465 17.1642 86.5466 17.6788C86.0614 18.1787 85.8188 18.9065 85.8188 19.8622V26.6108H82.7312V19.8622C82.7312 18.9065 82.4886 18.1787 82.0034 17.6788C81.5182 17.1642 80.8565 16.9069 80.0185 16.9069C79.1657 16.9069 78.4893 17.1642 77.9894 17.6788C77.5042 18.1787 77.2617 18.9065 77.2617 19.8622V26.6108H74.174V14.3927H77.2617V15.8703C77.6586 15.3557 78.1659 14.9514 78.7834 14.6573C79.4156 14.3633 80.1067 14.2162 80.8565 14.2162C81.8122 14.2162 82.665 14.4221 83.4148 14.8338C84.1647 15.2307 84.7455 15.8042 85.1571 16.554C85.5541 15.8483 86.1275 15.2822 86.8774 14.8558C87.6419 14.4294 88.4653 14.2162 89.3475 14.2162ZM95.718 20.4576C95.718 19.2226 95.9605 18.1272 96.4457 17.1715C96.9456 16.2158 97.6146 15.4807 98.4527 14.9661C99.3055 14.4515 100.254 14.1942 101.298 14.1942C102.209 14.1942 103.003 14.378 103.68 14.7455C104.371 15.1131 104.922 15.5763 105.334 16.135V14.3927H108.443V26.6108H105.334V24.8244C104.937 25.3978 104.385 25.8757 103.68 26.258C102.989 26.6255 102.187 26.8093 101.276 26.8093C100.246 26.8093 99.3055 26.5447 98.4527 26.0154C97.6146 25.4861 96.9456 24.7436 96.4457 23.7879C95.9605 22.8175 95.718 21.7074 95.718 20.4576ZM105.334 20.5018C105.334 19.7519 105.187 19.1123 104.893 18.583C104.599 18.039 104.202 17.6273 103.702 17.348C103.202 17.0539 102.665 16.9069 102.092 16.9069C101.518 16.9069 100.989 17.0466 100.504 17.3259C100.019 17.6053 99.6216 18.017 99.3128 18.561C99.0188 19.0903 98.8717 19.7225 98.8717 20.4576C98.8717 21.1928 99.0188 21.8397 99.3128 22.3984C99.6216 22.9424 100.019 23.3615 100.504 23.6555C101.004 23.9496 101.533 24.0966 102.092 24.0966C102.665 24.0966 103.202 23.957 103.702 23.6776C104.202 23.3835 104.599 22.9719 104.893 22.4425C105.187 21.8985 105.334 21.2516 105.334 20.5018ZM114.282 16.9289V22.8395C114.282 23.2512 114.378 23.5526 114.569 23.7438C114.774 23.9202 115.113 24.0084 115.583 24.0084H117.017V26.6108H115.076C112.473 26.6108 111.172 25.3464 111.172 22.8175V16.9289H109.717V14.3927H111.172V11.3712H114.282V14.3927H117.017V16.9289H114.282Z" fill="white"/>
</svg>
